# Blender v2.80 (sub 75) OBJ File: 'contimplation.blend'
# www.blender.org
mtllib lightswitch.mtl
o Plane.002_Plane.003
v -3.128002 0.073283 3.547898
v -3.003174 0.073283 3.547898
v -3.128002 0.355854 3.547898
v -3.003174 0.355854 3.547898
v -3.128002 0.073283 3.538514
v -3.003174 0.073283 3.538514
v -3.128002 0.355854 3.538514
v -3.003174 0.355854 3.538514
v -3.195266 -0.002848 3.561324
v -2.940812 -0.002848 3.561324
v -3.195266 0.431985 3.561324
v -2.940812 0.431985 3.561324
v -3.195266 -0.002848 3.546883
v -2.940812 -0.002848 3.546883
v -3.195266 0.431985 3.546883
v -2.940812 0.431985 3.546883
v -3.122832 0.088512 3.550627
v -3.013246 0.088512 3.550627
v -3.122832 0.340625 3.550627
v -3.013246 0.340625 3.550627
v -3.122133 0.086870 3.531402
v -3.012547 0.086870 3.531402
v -3.119945 0.346164 3.534330
v -3.010359 0.346164 3.534330
v -3.122832 0.214568 3.550627
v -3.013246 0.214568 3.550627
v -3.120068 0.217338 3.537420
v -3.010482 0.217338 3.537420
vt 0.000000 0.000000
vt 1.000000 0.000000
vt 1.000000 1.000000
vt 0.000000 1.000000
vt 0.000000 0.000000
vt 0.000000 1.000000
vt 1.000000 1.000000
vt 1.000000 0.000000
vt 0.000000 0.000000
vt 1.000000 0.000000
vt 1.000000 1.000000
vt 0.000000 1.000000
vt 0.000000 0.000000
vt 0.000000 1.000000
vt 1.000000 1.000000
vt 1.000000 0.000000
vt 0.000000 0.500000
vt 1.000000 0.500000
vt 1.000000 1.000000
vt 0.000000 1.000000
vt 0.000000 0.500000
vt 0.000000 1.000000
vt 1.000000 1.000000
vt 1.000000 0.500000
vt 1.000000 0.000000
vt 0.000000 0.000000
vt 0.000000 0.000000
vt 1.000000 0.000000
vn 0.0000 0.0000 1.0000
vn 0.0000 0.0000 -1.0000
vn -1.0000 0.0000 0.0000
vn 0.0000 -1.0000 0.0000
vn 1.0000 0.0000 0.0000
vn 0.0000 1.0000 0.0000
vn 0.0000 -0.0240 -0.9997
vn -0.9820 -0.0018 -0.1886
vn 0.0000 -0.9964 0.0851
vn 0.9943 -0.0105 0.1058
vn 0.0000 0.9468 0.3218
vn 0.9821 0.0018 0.1886
vn -0.9943 0.0105 -0.1058
vn 0.0000 0.0461 -0.9989
usemtl None
s off
f 1/1/1 2/2/1 4/3/1 3/4/1
f 5/5/2 7/6/2 8/7/2 6/8/2
f 1/1/3 3/4/3 7/6/3 5/5/3
f 2/2/4 1/1/4 5/5/4 6/8/4
f 4/3/5 2/2/5 6/8/5 8/7/5
f 3/4/6 4/3/6 8/7/6 7/6/6
f 9/9/1 10/10/1 12/11/1 11/12/1
f 13/13/2 15/14/2 16/15/2 14/16/2
f 9/9/3 11/12/3 15/14/3 13/13/3
f 10/10/4 9/9/4 13/13/4 14/16/4
f 12/11/5 10/10/5 14/16/5 16/15/5
f 11/12/6 12/11/6 16/15/6 15/14/6
f 25/17/1 26/18/1 20/19/1 19/20/1
f 27/21/7 23/22/7 24/23/7 28/24/7
f 25/17/8 19/20/8 23/22/8 27/21/8
f 18/25/9 17/26/9 21/27/9 22/28/9
f 26/18/10 18/25/10 22/28/10 28/24/10
f 19/20/11 20/19/11 24/23/11 23/22/11
f 20/19/12 26/18/12 28/24/12 24/23/12
f 17/26/13 25/17/13 27/21/13 21/27/13
f 21/27/14 27/21/14 28/24/14 22/28/14
f 17/26/1 18/25/1 26/18/1 25/17/1
