# 3ds Max Wavefront OBJ Exporter v0.99 - (c)2007 guruware
# File Created: 05.08.2021 08:52:14

mtllib BioFluidMedium.mtl

#
# object Fluidmedium
#

v  0.3491 1.0541 0.8661
v  0.3491 1.0384 0.8440
v  0.3491 1.0286 0.8580
v  0.3491 1.0553 0.8385
v  0.3491 1.0391 0.8887
v  0.3491 1.0554 0.8938
v  0.3491 1.0288 0.8751
v  0.3701 1.0384 0.8440
v  0.3701 1.0286 0.8580
v  0.3701 1.0534 0.8385
v  0.3701 1.0391 0.8887
v  0.3701 1.0542 0.8938
v  0.3701 1.0288 0.8751
v  0.4308 1.0286 0.8580
v  0.4308 1.0384 0.8440
v  0.4308 1.0550 0.8661
v  0.4308 1.0535 0.8385
v  0.4308 1.0554 0.8938
v  0.4308 1.0391 0.8887
v  0.4308 1.0288 0.8751
v  0.3733 1.0556 0.8661
v  0.3940 1.0384 0.8440
v  0.3940 1.0286 0.8580
v  0.3891 1.0535 0.8385
v  0.3940 1.0391 0.8887
v  0.3940 1.0554 0.8938
v  0.3940 1.0288 0.8751
v  0.3940 1.0545 0.8661
v  0.4230 1.0384 0.8440
v  0.4230 1.0286 0.8580
v  0.4230 1.0530 0.8385
v  0.4230 1.0391 0.8887
v  0.4230 1.0538 0.8938
v  0.4230 1.0288 0.8751
v  0.4230 1.0534 0.8661
# 35 vertices

vn -0.7480 0.6637 -0.0009
vn -0.6425 -0.4556 -0.6162
vn -0.6437 -0.7314 -0.2252
vn -0.5286 0.5483 -0.6481
vn -0.6437 -0.4402 0.6260
vn -0.5423 0.5357 0.6473
vn -0.6437 -0.7241 0.2477
vn 0.0000 -0.6096 -0.7927
vn 0.0000 -0.9557 -0.2943
vn 0.0342 0.5079 -0.8607
vn -0.0000 -0.5840 0.8117
vn 0.0058 0.5371 0.8435
vn -0.0000 -0.9462 0.3236
vn 0.6437 -0.7314 -0.2252
vn 0.6456 -0.4648 -0.6060
vn 0.5965 0.8022 -0.0275
vn 0.5433 0.4888 -0.6826
vn 0.4906 0.5909 0.6404
vn 0.6438 -0.4402 0.6260
vn 0.6437 -0.7241 0.2477
vn -0.0012 0.9999 -0.0153
vn -0.0000 -0.6088 -0.7933
vn 0.0033 0.5620 -0.8272
vn -0.0000 -0.5753 0.8180
vn 0.0023 0.6303 0.7764
vn 0.0658 0.9971 -0.0388
vn -0.0000 -0.6130 -0.7901
vn -0.0000 -0.9557 -0.2943
vn -0.0191 0.5407 -0.8410
vn -0.0000 -0.5872 0.8095
vn -0.0491 0.5172 0.8544
vn -0.1134 0.9934 -0.0153
# 32 vertex normals

vt 0.5000 0.0000 0.0000
vt 0.8500 0.0000 1.0000
vt 0.7500 0.0000 1.0000
vt 0.9500 0.0000 1.0000
vt 0.5500 0.0000 1.0000
vt 0.4500 0.0000 1.0000
vt 0.6500 0.0000 1.0000
vt 0.8500 0.2566 1.0000
vt 0.7500 0.2566 1.0000
vt 0.9500 0.2566 1.0000
vt 0.5500 0.2566 1.0000
vt 0.4500 0.2566 1.0000
vt 0.6500 0.2566 1.0000
vt 0.7500 1.0000 1.0000
vt 0.8500 1.0000 1.0000
vt 0.5000 1.0000 0.0000
vt 0.9500 1.0000 1.0000
vt 0.4500 1.0000 1.0000
vt 0.5500 1.0000 1.0000
vt 0.6500 1.0000 1.0000
vt 0.5000 0.2566 0.0000
vt 0.8500 0.5503 1.0000
vt 0.7500 0.5503 1.0000
vt 0.9500 0.5503 1.0000
vt 0.5500 0.5503 1.0000
vt 0.4500 0.5503 1.0000
vt 0.6500 0.5503 1.0000
vt 0.5000 0.5503 0.0000
vt 0.8500 0.9044 1.0000
vt 0.7500 0.9044 1.0000
vt 0.9500 0.9044 1.0000
vt 0.5500 0.9044 1.0000
vt 0.4500 0.9044 1.0000
vt 0.6500 0.9044 1.0000
vt 0.5000 0.9044 0.0000
# 35 texture coords

o Fluidmedium
g Fluidmedium
usemtl wire_028028177
s 1
f 1/1/1 2/2/2 3/3/3 
f 1/1/1 4/4/4 2/2/2 
f 1/1/1 5/5/5 6/6/6 
f 1/1/1 7/7/7 5/5/5 
f 1/1/1 3/3/3 7/7/7 
s 2
f 3/3/3 2/2/2 8/8/8 9/9/9 
f 2/2/2 4/4/4 10/10/10 8/8/8 
f 6/6/6 5/5/5 11/11/11 12/12/12 
f 5/5/5 7/7/7 13/13/13 11/11/11 
f 7/7/7 3/3/3 9/9/9 13/13/13 
s 1
f 14/14/14 15/15/15 16/16/16 
f 15/15/15 17/17/17 16/16/16 
f 18/18/18 19/19/19 16/16/16 
f 19/19/19 20/20/20 16/16/16 
f 20/20/20 14/14/14 16/16/16 
s 4
f 1/1/1 21/21/21 10/10/10 4/4/4 
f 1/1/1 6/6/6 12/12/12 21/21/21 
s 2
f 8/8/8 22/22/22 23/23/9 9/9/9 
f 10/10/10 24/24/23 22/22/22 8/8/8 
f 11/11/11 25/25/24 26/26/25 12/12/12 
f 13/13/13 27/27/13 25/25/24 11/11/11 
f 9/9/9 23/23/9 27/27/13 13/13/13 
s 4
f 21/21/21 28/28/26 24/24/23 10/10/10 
f 12/12/12 26/26/25 28/28/26 21/21/21 
s 2
f 22/22/22 29/29/27 30/30/28 23/23/9 
f 24/24/23 31/31/29 29/29/27 22/22/22 
f 25/25/24 32/32/30 33/33/31 26/26/25 
f 27/27/13 34/34/13 32/32/30 25/25/24 
f 23/23/9 30/30/28 34/34/13 27/27/13 
s 4
f 28/28/26 35/35/32 31/31/29 24/24/23 
f 26/26/25 33/33/31 35/35/32 28/28/26 
s 2
f 29/29/27 15/15/15 14/14/14 30/30/28 
f 31/31/29 17/17/17 15/15/15 29/29/27 
f 32/32/30 19/19/19 18/18/18 33/33/31 
f 34/34/13 20/20/20 19/19/19 32/32/30 
f 30/30/28 14/14/14 20/20/20 34/34/13 
s 4
f 35/35/32 16/16/16 17/17/17 31/31/29 
f 33/33/31 18/18/18 16/16/16 35/35/32 
# 28 polygons - 10 triangles

